<?xml version="1.0" standalone="no"?>
<!DOCTYPE svg PUBLIC "-//W3C//DTD SVG 20010904//EN"
 "http://www.w3.org/TR/2001/REC-SVG-20010904/DTD/svg10.dtd">
<svg version="1.0" xmlns="http://www.w3.org/2000/svg"
 width="240.000000pt" height="240.000000pt" viewBox="0 0 240.000000 240.000000"
 preserveAspectRatio="xMidYMid meet">
<metadata>
Created by potrace 1.14, written by Peter Selinger 2001-2017
</metadata>
<g transform="translate(0.000000,240.000000) scale(0.100000,-0.100000)"
fill="#000000" stroke="none">
<path d="M0 1200 l0 -1000 1200 0 1200 0 0 1000 0 1000 -1200 0 -1200 0 0
-1000z m2300 0 l0 -900 -1100 0 -1100 0 0 900 0 900 1100 0 1100 0 0 -900z"/>
<path d="M748 1769 l-126 -130 -73 70 c-41 39 -76 71 -80 71 -3 0 -20 -15 -37
-33 l-33 -34 113 -107 112 -107 161 163 c172 174 170 171 116 215 l-27 22
-126 -130z"/>
<path d="M1200 1650 l0 -50 400 0 400 0 0 50 0 50 -400 0 -400 0 0 -50z"/>
<path d="M749 1270 l-126 -131 -74 70 c-41 39 -76 70 -80 71 -3 0 -20 -15 -37
-33 l-33 -34 112 -107 113 -108 158 162 c87 89 158 166 158 171 0 8 -56 69
-63 69 -2 0 -59 -59 -128 -130z"/>
<path d="M1200 1150 l0 -50 400 0 400 0 0 50 0 50 -400 0 -400 0 0 -50z"/>
<path d="M749 770 l-125 -130 -25 22 c-13 12 -48 45 -77 72 l-53 49 -35 -34
-35 -34 112 -108 113 -109 162 167 163 166 -35 35 c-20 19 -37 34 -38 34 -1 0
-58 -59 -127 -130z"/>
<path d="M1200 650 l0 -50 400 0 400 0 0 50 0 50 -400 0 -400 0 0 -50z"/>
</g>
</svg>
